<?xml version="1.0" standalone="no"?>
<!DOCTYPE svg PUBLIC "-//W3C//DTD SVG 20010904//EN"
 "http://www.w3.org/TR/2001/REC-SVG-20010904/DTD/svg10.dtd">
<svg version="1.0" xmlns="http://www.w3.org/2000/svg"
 width="512.000000pt" height="512.000000pt" viewBox="0 0 512.000000 512.000000"
 preserveAspectRatio="xMidYMid meet">

<g transform="translate(0.000000,512.000000) scale(0.100000,-0.100000)"
fill="#000000" stroke="none">
<path d="M2407 4130 c-370 -67 -663 -347 -744 -713 -24 -106 -21 -309 5 -408
42 -158 114 -291 222 -412 29 -31 56 -55 61 -51 5 3 9 196 9 460 l0 454 170 0
170 0 0 -495 0 -495 60 0 60 0 0 510 0 510 -45 0 -45 0 0 185 c0 102 2 185 6
185 3 0 118 -45 257 -99 139 -55 260 -103 270 -106 15 -7 17 -28 17 -246 l0
-239 -50 0 -50 0 0 -350 0 -350 60 0 60 0 0 335 0 335 130 0 130 0 0 -294 c0
-168 4 -297 9 -300 12 -8 101 92 157 175 298 447 137 1067 -342 1316 -130 68
-235 94 -394 98 -74 2 -157 0 -183 -5z m375 -39 c326 -84 584 -355 652 -684
20 -98 20 -266 0 -364 -30 -148 -122 -329 -208 -412 l-36 -35 0 287 0 287
-145 0 -145 0 0 248 0 247 -291 115 c-160 63 -295 117 -300 118 -5 2 -9 -80
-9 -202 l0 -206 -180 0 -180 0 0 -452 0 -452 -31 30 c-78 73 -157 211 -205
354 -26 79 -28 97 -29 250 0 186 9 233 76 378 51 111 111 193 207 283 125 118
298 203 462 228 93 14 271 5 362 -18z m-382 -1116 l0 -485 -35 0 -35 0 0 485
0 485 35 0 35 0 0 -485z m478 -157 l-3 -323 -37 -3 -38 -3 0 325 0 326 40 0
40 0 -2 -322z"/>
<path d="M548 2344 c-62 -33 -43 -110 32 -132 79 -23 90 -30 90 -55 0 -13 -5
-28 -12 -35 -17 -17 -90 -15 -117 4 -16 11 -26 13 -33 6 -17 -17 50 -52 98
-52 56 0 94 30 94 74 0 42 -20 59 -91 80 -68 19 -86 47 -53 80 19 20 60 20 96
2 26 -14 38 -12 38 6 0 12 -64 38 -92 38 -13 -1 -35 -7 -50 -16z"/>
<path d="M1601 2322 c-11 -21 -40 -84 -65 -140 -33 -75 -41 -102 -30 -102 8 0
22 16 31 35 l17 35 77 0 78 0 12 -35 c8 -22 20 -35 30 -35 16 0 16 5 -5 53
-69 154 -106 227 -115 227 -6 0 -19 -17 -30 -38z m60 -69 c13 -32 26 -61 27
-65 2 -4 -24 -8 -58 -8 -46 0 -61 3 -57 13 36 87 51 117 56 117 4 0 18 -26 32
-57z"/>
<path d="M2361 2318 c-11 -24 -37 -83 -60 -131 -45 -98 -47 -107 -27 -107 8 0
20 16 26 35 l12 35 77 0 77 0 17 -35 c9 -19 24 -35 33 -35 8 0 14 4 12 8 -53
126 -126 272 -136 272 -7 0 -21 -19 -31 -42z m63 -69 c14 -33 26 -62 26 -65 0
-2 -27 -4 -59 -4 l-60 0 27 65 c15 36 30 65 33 65 4 0 18 -27 33 -61z"/>
<path d="M3225 2243 l-38 -118 -37 110 c-26 79 -42 111 -54 113 -21 4 -22 10
36 -155 24 -67 46 -113 53 -113 8 0 26 39 44 93 17 50 35 98 40 106 6 9 20
-20 43 -90 20 -61 41 -105 49 -107 10 -2 28 36 59 125 25 70 47 131 49 136 2
5 -5 7 -15 5 -13 -2 -28 -33 -55 -110 l-37 -108 -38 112 c-22 61 -44 113 -50
115 -6 2 -28 -48 -49 -114z"/>
<path d="M260 2215 l0 -135 100 0 c82 0 100 3 100 15 0 12 -16 15 -85 15 l-85
0 0 45 0 44 72 3 c46 2 73 7 76 16 3 9 -16 12 -72 12 l-76 0 0 50 0 50 80 0
c47 0 80 4 80 10 0 6 -38 10 -95 10 l-95 0 0 -135z"/>
<path d="M740 2340 c0 -5 20 -10 45 -10 l45 0 0 -125 c0 -103 3 -125 15 -125
12 0 15 23 17 123 l3 122 48 3 c26 2 47 7 47 13 0 5 -48 9 -110 9 -67 0 -110
-4 -110 -10z"/>
<path d="M1010 2215 l0 -135 100 0 c82 0 100 3 100 15 0 12 -16 15 -85 15
l-85 0 0 45 0 45 75 0 c60 0 75 3 75 15 0 12 -15 15 -75 15 l-75 0 0 50 0 50
85 0 c50 0 85 4 85 10 0 6 -40 10 -100 10 l-100 0 0 -135z"/>
<path d="M1270 2215 l0 -135 95 0 c78 0 95 3 95 15 0 12 -16 15 -80 15 l-80 0
0 120 c0 100 -2 120 -15 120 -13 0 -15 -22 -15 -135z"/>
<path d="M1940 2215 c0 -112 3 -135 15 -135 11 0 15 21 17 106 l3 107 45 -67
c25 -36 47 -66 50 -66 3 0 26 33 52 73 l48 72 0 -112 c0 -94 3 -113 15 -113
13 0 15 22 15 135 0 122 -2 135 -17 135 -11 0 -36 -28 -63 -70 -25 -38 -47
-70 -50 -70 -3 0 -25 32 -50 70 -27 42 -52 70 -62 70 -16 0 -18 -13 -18 -135z"/>
<path d="M2580 2215 c0 -128 1 -135 20 -135 18 0 20 7 20 55 l0 55 38 0 c34 0
40 -5 75 -55 25 -35 45 -55 58 -55 17 0 15 7 -20 53 -36 46 -39 53 -24 62 59
36 70 89 28 130 -22 23 -32 25 -110 25 l-85 0 0 -135z m149 104 c41 -14 52
-53 23 -82 -14 -14 -38 -22 -76 -25 l-56 -4 0 61 0 61 39 0 c21 0 52 -5 70
-11z"/>
<path d="M2870 2215 c0 -113 2 -135 15 -135 13 0 15 22 15 135 0 113 -2 135
-15 135 -13 0 -15 -22 -15 -135z"/>
<path d="M3530 2215 l0 -135 100 0 c82 0 100 3 100 15 0 12 -16 15 -85 15
l-85 0 0 45 0 44 72 3 c46 2 73 7 76 16 3 9 -16 12 -72 12 l-76 0 0 50 0 50
80 0 c47 0 80 4 80 10 0 6 -38 10 -95 10 l-95 0 0 -135z"/>
<path d="M3790 2215 c0 -113 2 -135 15 -135 12 0 15 13 15 55 l0 55 38 0 c35
0 42 -5 78 -55 22 -31 47 -55 57 -55 21 0 18 7 -25 61 -31 40 -35 59 -15 59
47 0 63 91 24 128 -20 19 -35 22 -105 22 l-82 0 0 -135z m165 95 c8 -7 15 -25
15 -40 0 -38 -20 -51 -90 -57 l-60 -6 0 63 0 63 60 -6 c34 -3 67 -11 75 -17z"/>
<path d="M4070 2215 c0 -112 3 -135 15 -135 12 0 15 21 17 109 l3 110 85 -109
c47 -60 91 -109 98 -110 9 0 12 33 12 135 0 113 -2 135 -15 135 -12 0 -15 -19
-15 -107 l0 -106 -82 106 c-113 144 -118 143 -118 -28z"/>
<path d="M4380 2215 l0 -135 100 0 c82 0 100 3 100 15 0 12 -16 15 -85 15
l-85 0 0 45 0 44 72 3 c46 2 73 7 76 16 3 9 -16 12 -72 12 l-76 0 0 50 0 50
80 0 c47 0 80 4 80 10 0 6 -38 10 -95 10 l-95 0 0 -135z"/>
<path d="M4640 2215 c0 -113 2 -135 15 -135 12 0 15 13 15 55 l0 55 38 0 c35
0 42 -5 78 -55 22 -31 47 -55 57 -55 21 0 18 7 -25 61 -31 40 -35 59 -15 59
47 0 63 91 24 128 -20 19 -35 22 -105 22 l-82 0 0 -135z m150 102 c30 -15 39
-67 16 -86 -8 -7 -42 -15 -76 -18 l-60 -6 0 62 0 61 48 0 c26 0 58 -6 72 -13z"/>
<path d="M3330 1965 c-7 -9 -8 -15 -2 -15 5 0 12 7 16 15 3 8 4 15 2 15 -2 0
-9 -7 -16 -15z"/>
<path d="M1213 1929 c-20 -7 -23 -15 -23 -68 0 -51 3 -62 21 -72 27 -14 69 3
69 28 0 15 -1 15 -13 -1 -8 -11 -23 -17 -38 -14 -22 3 -24 7 -24 58 0 51 2 55
24 58 16 3 30 -3 39 -15 13 -17 14 -17 10 1 -4 24 -36 36 -65 25z"/>
<path d="M1373 1929 c-20 -7 -23 -15 -23 -68 0 -51 3 -62 21 -72 33 -17 67 3
74 45 13 68 -22 114 -72 95z m52 -69 c0 -54 0 -55 -30 -55 -28 0 -30 3 -33 44
-4 60 2 73 35 69 27 -3 28 -5 28 -58z"/>
<path d="M2153 1929 c-24 -9 -39 -62 -29 -104 9 -34 41 -50 73 -36 22 10 24
16 21 72 -3 67 -20 85 -65 68z m52 -69 c0 -54 0 -55 -30 -55 -28 0 -30 3 -33
44 -4 60 2 73 35 69 27 -3 28 -5 28 -58z"/>
<path d="M3320 1933 c-43 -15 -56 -97 -20 -133 43 -43 82 -12 78 63 -3 52 -26
80 -58 70z m45 -73 c0 -51 -2 -55 -24 -58 -43 -6 -66 51 -40 99 7 14 19 19 37
17 26 -3 27 -6 27 -58z"/>
<path d="M3862 1929 c-35 -13 -25 -50 21 -74 45 -24 45 -49 -1 -53 -24 -2 -32
1 -32 12 0 9 -5 16 -10 16 -18 0 8 -38 30 -45 10 -3 29 -1 40 5 32 17 22 51
-23 75 -42 22 -45 48 -7 53 15 3 29 -3 38 -15 13 -17 14 -17 10 1 -4 24 -36
36 -66 25z"/>
<path d="M1510 1860 c0 -40 4 -70 10 -70 6 0 10 14 10 30 0 44 31 40 54 -6 9
-20 19 -34 22 -31 3 3 -2 19 -11 36 -14 29 -14 33 0 47 32 33 10 64 -47 64
l-38 0 0 -70z m83 48 c8 -24 -5 -38 -34 -38 -24 0 -29 4 -29 25 0 21 5 25 29
25 16 0 31 -6 34 -12z"/>
<path d="M1672 1858 c0 -40 3 -58 5 -40 6 47 43 45 67 -4 9 -20 19 -34 22 -31
3 3 -2 19 -11 36 -14 29 -14 33 0 47 32 33 10 64 -47 64 l-38 0 2 -72z m78 37
c0 -22 -4 -25 -35 -25 -31 0 -35 3 -35 25 0 22 4 25 35 25 31 0 35 -3 35 -25z"/>
<path d="M1832 1858 l3 -73 39 -3 c21 -2 43 1 49 7 8 8 -3 11 -36 11 -43 0
-47 2 -47 25 0 21 5 25 30 25 17 0 30 5 30 10 0 6 -13 10 -30 10 -25 0 -30 4
-30 24 0 22 5 25 48 29 l47 3 -53 2 -53 2 3 -72z"/>
<path d="M1998 1923 c20 -4 22 -10 22 -69 0 -39 4 -64 11 -64 7 0 10 23 7 65
-3 62 -2 64 22 68 14 2 0 4 -30 4 -30 0 -45 -2 -32 -4z"/>
<path d="M2292 1858 c0 -40 3 -58 5 -40 6 47 43 45 67 -4 9 -20 19 -34 22 -31
3 3 -2 19 -11 36 -14 29 -14 33 0 47 32 33 10 64 -47 64 l-38 0 2 -72z m81 50
c8 -25 -6 -38 -39 -38 -30 0 -34 3 -34 25 0 22 4 25 34 25 19 0 36 -6 39 -12z"/>
<path d="M2471 1859 c-12 -39 -20 -73 -18 -76 3 -2 8 5 12 16 8 25 62 30 71 6
4 -8 10 -15 14 -15 12 0 -34 133 -47 137 -6 2 -21 -28 -32 -68z m58 -21 c1 -5
-10 -8 -24 -8 -28 0 -31 13 -14 57 l11 28 13 -35 c8 -19 14 -38 14 -42z"/>
<path d="M2660 1856 l0 -76 28 0 c51 0 64 18 60 85 l-3 60 -42 3 -43 3 0 -75z
m75 4 c0 -55 0 -55 -32 -58 l-33 -3 0 61 0 61 33 -3 c32 -3 32 -3 32 -58z"/>
<path d="M2820 1855 l0 -75 45 0 c25 0 45 5 45 10 0 6 -18 10 -40 10 -36 0
-40 3 -40 25 0 21 5 25 30 25 17 0 30 5 30 10 0 6 -13 10 -30 10 -25 0 -30 4
-30 24 0 22 5 25 43 29 l42 4 -47 1 -48 2 0 -75z"/>
<path d="M3023 1860 c0 -41 2 -58 4 -37 2 20 2 54 0 75 -2 20 -4 3 -4 -38z"/>
<path d="M3112 1860 l1 -75 6 60 c6 59 7 60 20 33 18 -35 24 -35 42 -1 14 26
14 25 20 -33 l6 -59 1 74 c2 63 0 72 -13 61 -8 -6 -17 -21 -21 -33 -6 -19 -8
-19 -35 14 l-28 34 1 -75z"/>
<path d="M3440 1924 c0 -20 42 -134 49 -134 4 0 15 26 25 58 10 31 21 64 24
72 3 10 2 12 -5 5 -6 -5 -18 -34 -28 -64 l-18 -54 -18 57 c-17 55 -29 80 -29
60z"/>
<path d="M3600 1855 l0 -75 45 0 c25 0 45 5 45 10 0 6 -18 10 -40 10 -36 0
-40 3 -40 25 0 21 5 25 30 25 17 0 30 5 30 10 0 6 -13 10 -30 10 -25 0 -30 4
-30 24 0 22 5 25 43 29 l42 4 -47 1 -48 2 0 -75z"/>
<path d="M3763 1855 c0 -44 2 -61 4 -37 2 23 2 59 0 80 -2 20 -4 1 -4 -43z"/>
<path d="M1976 1704 c-34 -33 -11 -85 37 -83 l32 1 -30 7 c-26 5 -30 10 -30
41 0 31 4 36 30 41 30 7 30 7 3 8 -15 0 -34 -6 -42 -15z"/>
<path d="M2061 1668 c1 -29 4 -43 6 -30 5 27 19 28 35 2 7 -11 17 -20 22 -20
4 0 1 11 -7 24 -11 16 -13 26 -5 34 17 17 1 42 -27 42 -24 0 -25 -3 -24 -52z
m42 35 c8 -7 -11 -33 -24 -33 -5 0 -9 9 -9 20 0 19 20 27 33 13z"/>
<path d="M2140 1670 l0 -50 33 1 c23 1 26 3 10 6 -25 5 -32 33 -8 33 8 0 15 5
15 10 0 6 -7 10 -15 10 -24 0 -17 28 8 33 16 3 13 5 -10 6 l-33 1 0 -50z"/>
<path d="M2218 1695 c-18 -40 3 -75 44 -74 l33 1 -30 7 c-26 5 -30 10 -30 41
0 31 4 36 30 41 l30 7 -33 1 c-26 1 -35 -4 -44 -24z"/>
<path d="M2305 1670 c0 -27 5 -50 10 -50 6 0 10 23 10 50 0 28 -4 50 -10 50
-5 0 -10 -22 -10 -50z"/>
<path d="M2483 1704 c-4 -11 3 -23 20 -36 34 -25 35 -42 2 -36 -14 3 -25 1
-25 -3 0 -5 11 -9 25 -9 39 0 44 29 10 56 -22 17 -25 24 -15 28 8 2 22 7 30 9
8 3 2 6 -13 6 -17 1 -30 -5 -34 -15z"/>
<path d="M2572 1708 c-7 -7 -12 -26 -12 -44 0 -33 14 -45 53 -43 16 1 14 3 -8
8 -25 5 -31 12 -33 38 -3 29 0 33 30 42 29 8 30 9 8 10 -15 1 -31 -4 -38 -11z"/>
<path d="M2726 1691 c4 -17 1 -32 -6 -36 -16 -10 -26 3 -12 17 7 7 12 17 12
23 0 11 -39 -35 -40 -47 0 -5 11 -8 25 -8 14 0 25 -6 25 -12 0 -10 2 -10 8 -1
10 16 3 93 -9 93 -5 0 -6 -13 -3 -29z"/>
<path d="M2781 1686 c-27 -43 -26 -46 5 -46 14 0 23 -4 19 -10 -3 -5 -2 -10 4
-10 14 0 17 16 13 61 -5 48 -14 49 -41 5z m21 -11 c-2 -14 -11 -25 -18 -25
-12 0 -11 5 2 25 9 14 17 25 19 25 1 0 0 -11 -3 -25z"/>
<path d="M2881 1698 c1 -13 -1 -31 -5 -40 -11 -24 1 -38 30 -38 27 0 41 21 28
42 -5 7 -7 23 -5 36 2 18 -2 22 -24 22 -21 0 -26 -4 -24 -22z m39 -3 c0 -8 -7
-15 -15 -15 -8 0 -15 7 -15 15 0 8 7 15 15 15 8 0 15 -7 15 -15z m4 -56 c-8
-14 -34 -11 -34 4 0 8 3 17 7 20 9 9 34 -13 27 -24z"/>
<path d="M2972 1713 c26 -4 26 -4 12 -40 -8 -19 -14 -39 -12 -45 2 -5 13 13
25 41 l21 51 -36 -1 c-29 -2 -31 -3 -10 -6z"/>
<path d="M3042 1708 c-13 -13 -16 -47 -6 -72 8 -20 38 -21 53 -2 18 22 2 49
-26 43 -30 -6 -25 13 8 30 22 12 22 13 4 13 -12 0 -26 -5 -33 -12z m38 -58 c0
-11 -6 -20 -14 -20 -18 0 -29 16 -21 30 11 18 35 11 35 -10z"/>
<path d="M2390 1660 c0 -5 7 -10 15 -10 8 0 15 5 15 10 0 6 -7 10 -15 10 -8 0
-15 -4 -15 -10z"/>
</g>
</svg>
