<?xml version="1.0" encoding="UTF-8"?>
<svg version="1.1" xmlns="http://www.w3.org/2000/svg" width="1180" height="1006">
<path d="M0 0 C329.67 0 659.34 0 999 0 C999 131.01 999 262.02 999 397 C989.1 402.28 979.2 407.56 969 413 C960.79794925 417.46942423 960.79794925 417.46942423 952.6015625 421.94921875 C946.17058673 425.46091566 939.71103154 428.9190098 933.25 432.375 C932.36468597 432.84859451 932.36468597 432.84859451 931.46148682 433.33175659 C930.26860747 433.96986748 929.0757262 434.60797478 927.88284302 435.24607849 C926.99724197 435.71981651 926.99724197 435.71981651 926.09375 436.203125 C925.20730301 436.677286 925.20730301 436.677286 924.302948 437.161026 C908.85324112 445.4273158 893.43767362 453.75704065 878.03369141 462.1081543 C867.46130004 467.83797106 856.87205858 473.53638725 846.28222656 479.23388672 C839.77367383 482.73603418 833.2665052 486.24075293 826.75927734 489.74536133 C821.29361461 492.68882188 815.82721868 495.63090505 810.359375 498.5703125 C800.26577514 503.99805915 790.17942995 509.43748303 780.125 514.9375 C770.07621104 520.43304649 759.98254096 525.84359527 749.88339233 531.24580383 C749.29281036 531.56171982 748.70222839 531.8776358 748.09375 532.203125 C747.2072728 532.6773011 747.2072728 532.6773011 746.30288696 533.16105652 C730.85320776 541.42735004 715.43765373 549.75705143 700.03369141 558.1081543 C689.46130004 563.83797106 678.87205858 569.53638725 668.28222656 575.23388672 C661.77367383 578.73603418 655.2665052 582.24075293 648.75927734 585.74536133 C643.29361461 588.68882188 637.82721868 591.63090505 632.359375 594.5703125 C622.26577514 599.99805915 612.17942995 605.43748303 602.125 610.9375 C592.07414596 616.43417586 581.978457 621.84593773 571.8770752 627.2489624 C570.99046204 627.72320648 570.99046204 627.72320648 570.0859375 628.20703125 C569.49453979 628.5233551 568.90314209 628.83967896 568.29382324 629.16558838 C558.93000684 634.17571415 549.58398976 639.21895715 540.23535156 644.25732422 C536.94683232 646.02863801 533.65716975 647.79781145 530.3671875 649.56640625 C520.2708591 654.99522731 510.18198436 660.4360857 500.125 665.9375 C490.07621104 671.43304649 479.98254096 676.84359527 469.88339233 682.24580383 C469.29281036 682.56171982 468.70222839 682.8776358 468.09375 683.203125 C467.5027652 683.5192424 466.9117804 683.8353598 466.30288696 684.16105652 C450.85320776 692.42735004 435.43765373 700.75705143 420.03369141 709.1081543 C409.46130004 714.83797106 398.87205858 720.53638725 388.28222656 726.23388672 C381.77367383 729.73603418 375.2665052 733.24075293 368.75927734 736.74536133 C363.29361461 739.68882188 357.82721868 742.63090505 352.359375 745.5703125 C342.26577514 750.99805915 332.17942995 756.43748303 322.125 761.9375 C312.07621104 767.43304649 301.98254096 772.84359527 291.88339233 778.24580383 C291.29281036 778.56171982 290.70222839 778.8776358 290.09375 779.203125 C289.5027652 779.5192424 288.9117804 779.8353598 288.30288696 780.16105652 C272.85320776 788.42735004 257.43765373 796.75705143 242.03369141 805.1081543 C231.46130004 810.83797106 220.87205858 816.53638725 210.28222656 822.23388672 C203.77367383 825.73603418 197.2665052 829.24075293 190.75927734 832.74536133 C185.29361461 835.68882188 179.82721868 838.63090505 174.359375 841.5703125 C164.26577514 846.99805915 154.17942995 852.43748303 144.125 857.9375 C134.07621104 863.43304649 123.98254096 868.84359527 113.88339233 874.24580383 C113.29281036 874.56171982 112.70222839 874.8776358 112.09375 875.203125 C111.2072728 875.6773011 111.2072728 875.6773011 110.30288696 876.16105652 C94.85320776 884.42735004 79.43765373 892.75705143 64.03369141 901.1081543 C55.66483017 905.64374513 47.28804696 910.16452803 38.90209961 914.66845703 C33.7682371 917.42656948 28.63906042 920.19237181 23.52600098 922.98884583 C21.70897731 923.9822165 19.89059598 924.97305503 18.07177734 925.96313477 C15.77377657 927.21509275 13.4784162 928.47191238 11.18603516 929.73413086 C10.15655762 930.29366455 9.12708008 930.85319824 8.06640625 931.4296875 C6.7043103 932.17581299 6.7043103 932.17581299 5.31469727 932.93701172 C3 934 3 934 0 934 C0 625.78 0 317.56 0 0 Z " fill="#FF7714" transform="translate(89,47)"/>
<path d="M0 0 C10.78837817 8.43664329 19.10014252 19.47159344 21.671875 33.1875 C23.55489609 49.32768075 21.54523169 64.42775818 12.25 78.125 C3.0572055 89.49824861 -9.60845456 96.53123755 -24 99 C-40.2427182 100.39825286 -55.1846109 96.85485743 -68.01171875 86.58984375 C-78.65432344 76.73127815 -84.69247846 64.31073027 -85.3359375 49.765625 C-85.61104184 33.02033956 -83.36740012 19.45663269 -71.81640625 6.5625 C-52.94363947 -11.78344077 -21.87803109 -15.35368968 0 0 Z " fill="#FFFDFB" transform="translate(327,150)"/>
<path d="M0 0 C5.31957737 1.81091996 8.7103588 0.20068128 13.6328125 -1.9921875 C18.9431627 -4.25302966 23.98964516 -4.24988621 29.6875 -4.3125 C30.54794922 -4.34150391 31.40839844 -4.37050781 32.29492188 -4.40039062 C39.64745532 -4.47241997 45.45585114 -2.75122064 51.3046875 1.7890625 C52.08199219 2.69785156 52.08199219 2.69785156 52.875 3.625 C53.40867187 4.21539062 53.94234375 4.80578125 54.4921875 5.4140625 C59.26233984 13.59499734 59.41270376 22.20301545 59.29296875 31.4453125 C59.28872391 32.69633759 59.28447906 33.94736267 59.28010559 35.23629761 C59.26625204 38.52762875 59.23940206 41.81850082 59.20599365 45.10968018 C59.1750482 48.48191778 59.16154853 51.85422318 59.14648438 55.2265625 C59.11355528 61.81790771 59.06184541 68.40886525 59 75 C51.08 75 43.16 75 35 75 C34.96261719 71.37644531 34.92523437 67.75289063 34.88671875 64.01953125 C34.84050054 60.50799541 34.7892678 56.99656604 34.73754883 53.48510742 C34.70430583 51.04572017 34.67627199 48.60625612 34.65356445 46.16674805 C34.62000783 42.65900968 34.56768951 39.15197475 34.51171875 35.64453125 C34.50532883 34.55477493 34.4989389 33.46501862 34.49235535 32.34223938 C34.45209878 25.14851094 34.45209878 25.14851094 31 19 C27.68258677 16.57741534 24.51518411 16.76184974 20.5 16.8125 C19.3759375 16.81894531 18.251875 16.82539063 17.09375 16.83203125 C13.81479276 16.91201277 13.81479276 16.91201277 10 18 C9.67 36.81 9.34 55.62 9 75 C1.08 75 -6.84 75 -15 75 C-15.02578125 71.30425781 -15.0515625 67.60851562 -15.078125 63.80078125 C-15.11654204 60.21973058 -15.16170361 56.63882407 -15.20751953 53.05786133 C-15.23573752 50.56997565 -15.25694787 48.08200018 -15.27099609 45.59399414 C-15.29241321 42.01662193 -15.3390602 38.44033027 -15.390625 34.86328125 C-15.39185364 33.75165115 -15.39308228 32.64002106 -15.39434814 31.4947052 C-15.4800511 25.35278855 -15.4800511 25.35278855 -17.91308594 19.82104492 C-21.29744127 16.86785044 -23.32526331 16.86399319 -27.75 16.875 C-28.77609375 16.87242187 -29.8021875 16.86984375 -30.859375 16.8671875 C-33.98467167 16.99935179 -36.92265803 17.46031289 -40 18 C-39.99777939 18.69935165 -39.99555878 19.39870331 -39.99327087 20.11924744 C-39.9732672 26.69704921 -39.95802548 33.27484254 -39.94818783 39.85266781 C-39.94296025 43.23471813 -39.93586489 46.6167434 -39.92456055 49.9987793 C-39.91165733 53.88329777 -39.90677076 57.76780597 -39.90234375 61.65234375 C-39.89718246 62.87211411 -39.89202118 64.09188446 -39.88670349 65.34861755 C-39.88659019 67.03024742 -39.88659019 67.03024742 -39.88647461 68.74584961 C-39.884254 69.73846298 -39.88203339 70.73107635 -39.87974548 71.75376892 C-40 74 -40 74 -41 75 C-42.69558726 75.09932153 -44.39525747 75.13080007 -46.09375 75.1328125 C-47.12371094 75.13410156 -48.15367187 75.13539063 -49.21484375 75.13671875 C-50.84099609 75.13091797 -50.84099609 75.13091797 -52.5 75.125 C-53.58410156 75.12886719 -54.66820312 75.13273437 -55.78515625 75.13671875 C-56.81511719 75.13542969 -57.84507812 75.13414062 -58.90625 75.1328125 C-59.85822266 75.13168457 -60.81019531 75.13055664 -61.79101562 75.12939453 C-64 75 -64 75 -65 74 C-65.09496708 71.59651714 -65.12558862 69.22189018 -65.11352539 66.81811523 C-65.11367142 66.06694427 -65.11381744 65.31577332 -65.1139679 64.5418396 C-65.11326863 62.04739541 -65.10547564 59.55302497 -65.09765625 57.05859375 C-65.09579212 55.33366436 -65.09436819 53.60873443 -65.09336853 51.88380432 C-65.08954297 47.33487497 -65.07971238 42.78597733 -65.06866455 38.23706055 C-65.05845124 33.59879994 -65.05387108 28.96053423 -65.04882812 24.32226562 C-65.03809013 15.21482754 -65.02049304 6.10742137 -65 -3 C-57.08 -3 -49.16 -3 -41 -3 C-41 -1.68 -41 -0.36 -41 1 C-40.34773438 0.72285156 -39.69546875 0.44570313 -39.0234375 0.16015625 C-38.14945312 -0.20207031 -37.27546875 -0.56429688 -36.375 -0.9375 C-35.51648438 -1.29714844 -34.65796875 -1.65679687 -33.7734375 -2.02734375 C-22.83044645 -5.86509695 -10.13245784 -5.47284599 0 0 Z " fill="#FFFBF9" transform="translate(503,306)"/>
<path d="M0 0 C3.46139748 1.80368768 3.46139748 1.80368768 7.17578125 1.390625 C7.88089844 1.01421875 8.58601563 0.6378125 9.3125 0.25 C19.12526716 -4.9012493 31.39804874 -5.74486474 42.1484375 -3.27734375 C47.11314998 -1.43607651 50.58749274 0.86362756 54 5 C54.556875 5.639375 55.11375 6.27875 55.6875 6.9375 C58.56234755 11.45511757 59.24930763 15.91409277 59.22705078 21.18896484 C59.22689972 22.38975677 59.22674866 23.59054871 59.22659302 24.82772827 C59.21627045 26.10918732 59.20594788 27.39064636 59.1953125 28.7109375 C59.1915779 30.04757474 59.18873304 31.38421474 59.18673706 32.72085571 C59.17913577 36.22255132 59.15951788 39.7240785 59.1373291 43.22570801 C59.11679474 46.80539675 59.10771918 50.38511296 59.09765625 53.96484375 C59.07626827 60.97663826 59.0411151 67.98829368 59 75 C51.08 75 43.16 75 35 75 C34.98582031 71.30425781 34.97164063 67.60851562 34.95703125 63.80078125 C34.9264139 60.21971505 34.88732403 56.63883457 34.84741211 53.05786133 C34.82422144 50.56997245 34.80983393 48.08198526 34.80444336 45.59399414 C34.7951622 42.01646573 34.75418589 38.44048621 34.70703125 34.86328125 C34.7109639 33.75165115 34.71489655 32.64002106 34.71894836 31.4947052 C34.64740391 25.19136457 34.64740391 25.19136457 31.58081055 19.82104492 C28.13343521 17.38854349 26.47392018 16.86225446 22.3125 16.875 C21.48363281 16.87242187 20.65476562 16.86984375 19.80078125 16.8671875 C16.51579539 17.02296089 13.25562429 17.53491082 10 18 C10 36.81 10 55.62 10 75 C2.08 75 -5.84 75 -14 75 C-14.04898438 71.46023437 -14.09796875 67.92046875 -14.1484375 64.2734375 C-14.20247635 60.83801108 -14.25977251 57.40265332 -14.31738281 53.96728516 C-14.35562114 51.58322279 -14.39048293 49.19910375 -14.421875 46.81494141 C-14.46763683 43.38423431 -14.52561389 39.95391568 -14.5859375 36.5234375 C-14.59748871 35.46071625 -14.60903992 34.397995 -14.62094116 33.30307007 C-14.72200921 28.21355383 -14.81457872 23.70384989 -17 19 C-21.25857695 16.07222835 -27.02251913 16.5266172 -32 17 C-34.64 17.66 -37.28 18.32 -40 19 C-40 37.48 -40 55.96 -40 75 C-47.92 75 -55.84 75 -64 75 C-64 49.26 -64 23.52 -64 -3 C-56.41 -3 -48.82 -3 -41 -3 C-41 -1.35 -41 0.3 -41 2 C-40.18015625 1.65066406 -39.3603125 1.30132812 -38.515625 0.94140625 C-37.43796875 0.48636719 -36.3603125 0.03132812 -35.25 -0.4375 C-34.18265625 -0.88996094 -33.1153125 -1.34242188 -32.015625 -1.80859375 C-21.37797796 -6.01129109 -10.1093255 -5.03628216 0 0 Z " fill="#FFFDFC" transform="translate(459,172)"/>
<path d="M0 0 C8.25 0 16.5 0 25 0 C25 35.31 25 70.62 25 107 C17.08 107 9.16 107 1 107 C0.67 106.34 0.34 105.68 0 105 C-0.53947266 105.21148682 -1.07894531 105.42297363 -1.63476562 105.64086914 C-7.37199029 107.74176386 -12.40765866 108.51589183 -18.5 108.4375 C-19.75272705 108.42505249 -19.75272705 108.42505249 -21.03076172 108.41235352 C-27.12569935 108.24460842 -31.89272943 107.51973452 -37 104 C-37.76441406 103.51402344 -38.52882813 103.02804687 -39.31640625 102.52734375 C-47.9522904 96.50925644 -52.32919447 88.4618506 -54.53125 78.27734375 C-56.5882536 63.89546025 -54.64946618 51.77061789 -46 40 C-43.87068543 37.61495892 -41.6488546 35.78359749 -39 34 C-38.30519531 33.525625 -37.61039062 33.05125 -36.89453125 32.5625 C-29.52149485 28.21524906 -21.42202873 27.33725857 -13 28 C-8.71 29.32 -4.42 30.64 0 32 C0 21.44 0 10.88 0 0 Z " fill="#FFFCFA" transform="translate(295,407)"/>
<path d="M0 0 C7.92 0 15.84 0 24 0 C24 35.31 24 70.62 24 107 C16.41 107 8.82 107 1 107 C0.67 106.01 0.34 105.02 0 104 C-0.53625 104.28875 -1.0725 104.5775 -1.625 104.875 C-10.57965769 109.11667996 -21.38643189 109.67329539 -30.9375 106.875 C-39.44072712 103.40230801 -47.16868571 97.87134726 -51.21875 89.47265625 C-56.21389463 77.32375091 -57.81722397 61.57229589 -52.9375 49.125 C-48.00861243 39.54258171 -41.00325871 33.25768652 -31.00390625 29.1875 C-21.04844214 26.20707 -9.26507857 27.36746071 0 32 C0 21.44 0 10.88 0 0 Z " fill="#FFFDFC" transform="translate(420,541)"/>
<path d="M0 0 C8.03878308 6.5799491 12.70917944 14.37136092 14.06640625 24.69140625 C14.86023984 37.57593612 13.10364971 48.29540656 5.06640625 58.69140625 C-5.28274374 68.71474967 -16.77805748 72.09153677 -30.91235352 72.06201172 C-41.75431657 71.75911382 -51.04931069 67.20282385 -58.90625 59.84375 C-68.15692089 49.96458342 -69.42452818 39.43595102 -69.19921875 26.47265625 C-68.80364329 16.52897518 -65.23569647 10.03122933 -58.375 2.921875 C-42.14036993 -11.91008303 -17.79759593 -12.70347187 0 0 Z " fill="#FFFDFC" transform="translate(641.93359375,310.30859375)"/>
<path d="M0 0 C7.71175046 6.15859581 12.54611295 14.16056236 14 24 C14.77447678 37.03206119 13.52087285 47.65185193 5 58 C-2.84084882 66.21422257 -12.13923511 70.77564632 -23.55078125 71.3359375 C-38.05230344 71.61319021 -49.02051302 69.23049872 -60 59 C-67.02857783 50.10386469 -69.35998271 42.35285463 -69.375 31.1875 C-69.39949219 30.24068359 -69.42398438 29.29386719 -69.44921875 28.31835938 C-69.49061494 18.2935824 -65.77552235 10.34388846 -59 3 C-42.00052577 -12.22933149 -18.55230073 -13.36008563 0 0 Z " fill="#FFFDFC" transform="translate(816,177)"/>
<path d="M0 0 C7.92 0 15.84 0 24 0 C24.33 10.89 24.66 21.78 25 33 C27.31 32.01 29.62 31.02 32 30 C41.79070587 26.63444486 54.33280419 26.06276949 63.78125 30.55078125 C71.60795654 35.66294344 75.09261354 42.05717777 77 51 C77.3778527 55.41594534 77.35142182 59.7971695 77.29296875 64.2265625 C77.28872391 65.45539154 77.28447906 66.68422058 77.28010559 67.95028687 C77.2634279 71.8420889 77.22579504 75.73335673 77.1875 79.625 C77.17243911 82.27733623 77.15875317 84.92968064 77.14648438 87.58203125 C77.1161231 94.05505462 77.05737779 100.52693536 77 107 C69.08 107 61.16 107 53 107 C52.97421875 103.53242188 52.9484375 100.06484375 52.921875 96.4921875 C52.88344008 93.12622022 52.83828431 89.76040537 52.79248047 86.39453125 C52.76429071 84.05899355 52.7430663 81.7233608 52.72900391 79.38769531 C52.70754754 76.02619841 52.66088094 72.66584193 52.609375 69.3046875 C52.60814636 68.26384003 52.60691772 67.22299255 52.60565186 66.15060425 C52.48482436 60.14212061 52.03622005 56.55991268 48 52 C43.30057899 48.79584931 39.6043017 48.58791899 34 49 C30.7 49.66 27.4 50.32 24 51 C24 69.48 24 87.96 24 107 C16.08 107 8.16 107 0 107 C0 71.69 0 36.38 0 0 Z " fill="#FFFDFC" transform="translate(659,140)"/>
<path d="M0 0 C8.09172594 6.0211587 13.37496307 14.19513245 15.40625 24.09765625 C17.16446613 37.98356774 17.16446613 37.98356774 14.75 42.8125 C-1.75 43.1425 -18.25 43.4725 -35.25 43.8125 C-30.61008791 50.98351069 -30.61008791 50.98351069 -23.25 53.8125 C-20.36297731 53.93444693 -17.51179066 54.00237059 -14.625 54 C-13.82336426 54.00064453 -13.02172852 54.00128906 -12.19580078 54.00195312 C-6.36874147 53.95010467 -0.88136164 53.39720478 4.75 51.8125 C5.45194375 53.87012909 6.13601697 55.93386031 6.8125 58 C7.19535156 59.14855469 7.57820312 60.29710937 7.97265625 61.48046875 C8.74406151 64.78704508 8.71093996 66.60332314 7.75 69.8125 C6.39870353 70.29970213 5.04375684 70.77678184 3.6875 71.25 C2.93339844 71.51683594 2.17929687 71.78367187 1.40234375 72.05859375 C-11.16754648 75.6314786 -29.12158838 76.37177364 -40.87890625 70.296875 C-41.66136719 69.80703125 -42.44382812 69.3171875 -43.25 68.8125 C-44.00152344 68.34328125 -44.75304687 67.8740625 -45.52734375 67.390625 C-53.85174802 61.62399858 -59.75740777 54.01674518 -61.8359375 43.984375 C-63.58562982 30.58107159 -62.03334082 19.09615061 -54.1484375 7.94921875 C-40.37180761 -7.55657662 -17.50499911 -11.40950835 0 0 Z " fill="#FFFCFA" transform="translate(591.25,174.1875)"/>
<path d="M0 0 C6.88501055 5.81013548 9.40998705 12.49240208 10.5 21.25 C10.84198252 28.00043765 10.90310131 34.75502618 10.95629883 41.51318359 C11.03887137 50.33483472 11.31554113 58.43690783 13.86352539 66.96923828 C14.5 69.25 14.5 69.25 14.5 72.25 C7.57 72.25 0.64 72.25 -6.5 72.25 C-6.83 70.93 -7.16 69.61 -7.5 68.25 C-8.23605469 68.52714844 -8.97210938 68.80429687 -9.73046875 69.08984375 C-11.19419922 69.63318359 -11.19419922 69.63318359 -12.6875 70.1875 C-14.13189453 70.72697266 -14.13189453 70.72697266 -15.60546875 71.27734375 C-25.91461156 74.74154963 -39.73016076 75.26520271 -49.59375 70.3671875 C-50.2228125 69.99851562 -50.851875 69.62984375 -51.5 69.25 C-52.428125 68.71375 -53.35625 68.1775 -54.3125 67.625 C-59.11540267 62.41041996 -61.79391935 56.68700247 -62 49.5625 C-61.66260182 43.08810246 -59.62013502 37.65530557 -55.28125 32.734375 C-46.85992707 25.71660589 -37.49357416 24.06968433 -26.9375 24.125 C-26.19564453 24.12113281 -25.45378906 24.11726562 -24.68945312 24.11328125 C-20.83499694 24.12014582 -17.24568938 24.31543196 -13.5 25.25 C-14.39930585 19.73143046 -14.39930585 19.73143046 -17.4375 15.3125 C-22.44808467 12.73128971 -27.12418844 13.06628844 -32.625 13.0625 C-33.99398438 13.04413086 -33.99398438 13.04413086 -35.390625 13.02539062 C-41.39946439 13.01255122 -46.680833 13.74463267 -52.5 15.25 C-54.15 9.64 -55.8 4.03 -57.5 -1.75 C-39.34276307 -7.5528283 -16.91680225 -11.46583263 0 0 Z " fill="#FFFCFB" transform="translate(516.5,575.75)"/>
<path d="M0 0 C6.86617428 6.55599803 9.38874122 14.51946877 9.79858398 23.80981445 C9.82657942 25.28590246 9.8505516 26.76207071 9.87109375 28.23828125 C9.90403695 29.86393758 9.93724851 31.48958849 9.97070312 33.11523438 C10.01797032 35.6492946 10.06243527 38.18333362 10.10180664 40.7175293 C10.1419015 43.18300287 10.19334808 45.64805014 10.24609375 48.11328125 C10.2545079 48.85733719 10.26292206 49.60139313 10.27159119 50.36799622 C10.3800152 55.06355971 11.04566011 59.35794259 12.18861389 63.91520691 C12.71246908 66.26782024 12.77993158 68.47356053 12.625 70.875 C9.33340684 70.93290353 6.04194397 70.96856261 2.75 71 C1.81285156 71.01675781 0.87570312 71.03351563 -0.08984375 71.05078125 C-0.98574219 71.05722656 -1.88164063 71.06367187 -2.8046875 71.0703125 C-3.63210449 71.08078613 -4.45952148 71.09125977 -5.31201172 71.10205078 C-7.375 70.875 -7.375 70.875 -9.375 68.875 C-11.50648914 69.03791714 -11.50648914 69.03791714 -13.8125 69.6875 C-14.59496094 69.87957031 -15.37742187 70.07164062 -16.18359375 70.26953125 C-17.92950924 70.75191432 -19.65662202 71.30220734 -21.375 71.875 C-25.05703991 72.18467865 -28.74398237 72.19899097 -32.4375 72.25 C-33.93700195 72.30607422 -33.93700195 72.30607422 -35.46679688 72.36328125 C-43.53676497 72.45766684 -50.33272169 70.7067694 -56.32055664 65.03076172 C-62.02112911 58.72942215 -62.84270258 53.83331541 -62.67578125 45.35546875 C-62.07579613 38.41278375 -59.60010693 34.62940253 -54.375 30.125 C-43.46166587 22.40796599 -31.33506379 21.73248465 -18.375 22.875 C-17.03503333 23.18057847 -15.69899985 23.5063358 -14.375 23.875 C-15.23928945 19.78926806 -15.80408243 17.41737169 -18.875 14.5 C-23.23788584 11.66412421 -26.65174237 11.68336096 -31.75 11.6875 C-32.55550293 11.68685547 -33.36100586 11.68621094 -34.19091797 11.68554688 C-40.72768092 11.74287547 -46.98235683 12.47112542 -53.375 13.875 C-54.21661854 11.79499989 -55.04800763 9.71085854 -55.875 7.625 C-56.3390625 6.46484375 -56.803125 5.3046875 -57.28125 4.109375 C-58.375 0.875 -58.375 0.875 -58.375 -3.125 C-40.96001802 -9.68843542 -15.35084557 -12.12059315 0 0 Z " fill="#FFFCFB" transform="translate(675.375,443.125)"/>
<path d="M0 0 C9.75976182 8.02469305 14.13075118 15.89343178 15.8125 28.3125 C15.8125 32.9325 15.8125 37.5525 15.8125 42.3125 C-1.3475 42.3125 -18.5075 42.3125 -36.1875 42.3125 C-31.2644851 50.76609971 -31.2644851 50.76609971 -23.1875 54.3125 C-14.94422472 54.97467865 -7.14021555 54.7594894 0.8125 52.3125 C2.1325 52.3125 3.4525 52.3125 4.8125 52.3125 C5.64948386 54.76964547 6.48222424 57.22808857 7.3125 59.6875 C7.67021484 60.73550781 7.67021484 60.73550781 8.03515625 61.8046875 C9.8125 67.0859375 9.8125 67.0859375 9.8125 69.3125 C-4.86967155 75.4069863 -23.09657688 77.2021982 -38.25390625 71.69921875 C-49.74880174 66.26554645 -56.93090299 58.18616535 -61.1875 46.3125 C-64.31054053 34.10425065 -62.22454086 21.7128855 -56.01171875 10.95703125 C-50.51016965 2.98155214 -42.50054644 -2.19659335 -33.3984375 -5.296875 C-21.40747335 -7.4154199 -10.67685952 -5.65245504 0 0 Z " fill="#FFFDFB" transform="translate(802.1875,307.6875)"/>
<path d="M0 0 C6.74047383 6.42278756 8.62303569 13.6600713 8.84375 22.71875 C8.86215942 23.39490356 8.88056885 24.07105713 8.89953613 24.7677002 C8.95805381 26.92838149 9.01084416 29.08914454 9.0625 31.25 C8.96279122 48.795827 8.96279122 48.795827 12.5625 65.75 C12.59920182 67.41626251 12.60422315 69.08385566 12.5625 70.75 C9.27090684 70.80790353 5.97944397 70.84356261 2.6875 70.875 C1.75035156 70.89175781 0.81320312 70.90851563 -0.15234375 70.92578125 C-1.04824219 70.93222656 -1.94414062 70.93867187 -2.8671875 70.9453125 C-3.69460449 70.95578613 -4.52202148 70.96625977 -5.37451172 70.97705078 C-7.4375 70.75 -7.4375 70.75 -9.4375 68.75 C-11.56898914 68.91291714 -11.56898914 68.91291714 -13.875 69.5625 C-14.65746094 69.75457031 -15.43992187 69.94664062 -16.24609375 70.14453125 C-17.99200924 70.62691432 -19.71912202 71.17720734 -21.4375 71.75 C-25.11953991 72.05967865 -28.80648237 72.07399097 -32.5 72.125 C-33.99950195 72.18107422 -33.99950195 72.18107422 -35.52929688 72.23828125 C-43.59926497 72.33266684 -50.39522169 70.5817694 -56.38305664 64.90576172 C-62.08362911 58.60442215 -62.90520258 53.70831541 -62.73828125 45.23046875 C-62.13829613 38.28778375 -59.66260693 34.50440253 -54.4375 30 C-43.52416587 22.28296599 -31.39756379 21.60748465 -18.4375 22.75 C-17.09753333 23.05557847 -15.76149985 23.3813358 -14.4375 23.75 C-15.30178945 19.66426806 -15.86658243 17.29237169 -18.9375 14.375 C-23.30038584 11.53912421 -26.71424237 11.55836096 -31.8125 11.5625 C-32.61800293 11.56185547 -33.42350586 11.56121094 -34.25341797 11.56054688 C-40.79018092 11.61787547 -47.04485683 12.34612542 -53.4375 13.75 C-55.68230642 8.13798394 -57.27098574 2.67863717 -58.4375 -3.25 C-40.45420261 -9.07612226 -15.77198094 -12.69876407 0 0 Z " fill="#FFFDFC" transform="translate(393.4375,443.25)"/>
<path d="M0 0 C7.92 0 15.84 0 24 0 C24.02578125 3.46757812 24.0515625 6.93515625 24.078125 10.5078125 C24.11655992 13.87377978 24.16171569 17.23959463 24.20751953 20.60546875 C24.23570929 22.94100645 24.2569337 25.2766392 24.27099609 27.61230469 C24.29245246 30.97380159 24.33911906 34.33415807 24.390625 37.6953125 C24.39185364 38.73615997 24.39308228 39.77700745 24.39434814 40.84939575 C24.51515059 46.85663363 24.95414152 50.44771988 29 55 C32.65659819 57.43773213 34.46718513 57.23840358 38.8125 57.1875 C40.61654297 57.17783203 40.61654297 57.17783203 42.45703125 57.16796875 C46.42954168 57.04917671 46.42954168 57.04917671 52 56 C52 37.52 52 19.04 52 0 C59.92 0 67.84 0 76 0 C76 25.41 76 50.82 76 77 C68.41 77 60.82 77 53 77 C52.67 75.68 52.34 74.36 52 73 C51.31292969 73.27714844 50.62585938 73.55429687 49.91796875 73.83984375 C48.56638672 74.38318359 48.56638672 74.38318359 47.1875 74.9375 C46.29417969 75.29714844 45.40085937 75.65679688 44.48046875 76.02734375 C39.08946334 78.14129705 34.54623214 78.25355142 28.8125 78.3125 C27.89146484 78.34150391 26.97042969 78.37050781 26.02148438 78.40039062 C18.78153395 78.46718932 13.59039221 77.02608695 8.01171875 72.32421875 C2.34589422 65.32132649 -0.13437565 58.45340569 -0.11352539 49.38354492 C-0.11344986 48.28278122 -0.11337433 47.18201752 -0.11329651 46.04789734 C-0.10813522 44.8706459 -0.10297394 43.69339447 -0.09765625 42.48046875 C-0.0962413 41.26676102 -0.09482635 40.05305328 -0.09336853 38.80256653 C-0.08777665 34.93085248 -0.07522558 31.05919653 -0.0625 27.1875 C-0.05748395 24.56054771 -0.05292123 21.93359451 -0.04882812 19.30664062 C-0.03866132 12.87105343 -0.01908413 6.43559165 0 0 Z " fill="#FFFEFD" transform="translate(526,437)"/>
<path d="M0 0 C-0.69817944 3.60945598 -1.47876382 7.18432916 -2.375 10.75 C-2.60960937 11.71421875 -2.84421875 12.6784375 -3.0859375 13.671875 C-3.38757813 14.44015625 -3.68921875 15.2084375 -4 16 C-7.74888156 17.24962719 -9.44497434 16.53981823 -13.25 15.5625 C-20.85265136 13.83786109 -28.20681232 13.2394481 -36 14 C-36.99 14.66 -37.98 15.32 -39 16 C-38.67 17.65 -38.34 19.3 -38 21 C-33.38612479 22.59019884 -28.76720088 24.09440095 -24.0625 25.39453125 C-3.18343085 31.19517536 -3.18343085 31.19517536 2.5 39.1875 C5.57369477 44.95067769 5.92372885 50.8614038 4.50390625 57.22265625 C2.25295953 63.82288985 -1.63769849 68.92013201 -7.97265625 72.12109375 C-24.96981338 79.48980349 -44.61456081 76.72595454 -62 72 C-62.66 71.67 -63.32 71.34 -64 71 C-63.46246904 64.81839396 -61.45417612 59.673142 -59 54 C-55.41605905 54.41353165 -51.86890869 54.83382914 -48.32421875 55.51171875 C-39.0901195 57.27356989 -27.76578736 59.1916099 -19 55 C-19 53.02 -19 51.04 -19 49 C-20.05316406 48.76925781 -21.10632813 48.53851563 -22.19140625 48.30078125 C-52.35875978 41.54841994 -52.35875978 41.54841994 -59 34 C-61.83263729 29.42674681 -62.54823131 25.41916931 -62.5 20.125 C-62.49572998 19.41827148 -62.49145996 18.71154297 -62.48706055 17.98339844 C-62.24201335 10.47785377 -59.8304847 6.68533164 -54.5625 1.6875 C-39.04046368 -8.53432879 -16.69252946 -6.44325643 0 0 Z " fill="#FFFCFA" transform="translate(511,440)"/>
<path d="M0 0 C8.25 0 16.5 0 25 0 C24.13974799 3.44100803 23.09164609 6.45805975 21.77856445 9.73974609 C21.0869799 11.47337906 21.0869799 11.47337906 20.38142395 13.24203491 C19.87548042 14.50254421 19.36943003 15.76301061 18.86328125 17.0234375 C18.34082195 18.32932601 17.81854205 19.63528631 17.2964325 20.9413147 C16.19933043 23.68402499 15.10045147 26.42601439 14.00024414 29.16748047 C12.60677388 32.639929 11.21703901 36.11385659 9.82861042 39.58832359 C8.74797602 42.29160301 7.66559194 44.99417927 6.5826931 47.69655228 C6.07084407 48.97428014 5.55943489 50.25218431 5.04851723 51.53028488 C1.4955965 60.41352225 -2.20492997 69.21825784 -6 78 C-13.59 78 -21.18 78 -29 78 C-29.66008057 76.36232666 -30.32016113 74.72465332 -31.00024414 73.03735352 C-33.21090792 67.55308412 -35.42216291 62.0690534 -37.63379765 56.58517551 C-38.97128068 53.26874835 -40.30854516 49.95223344 -41.64526367 46.63549805 C-42.93747388 43.4292216 -44.23033044 40.22320641 -45.52357101 37.01734543 C-46.0308668 35.75944651 -46.53792949 34.50145357 -47.04475784 33.24336624 C-49.43723777 27.30490163 -51.83419581 21.36944232 -54.30810547 15.46435547 C-54.80835487 14.26817848 -54.80835487 14.26817848 -55.31871033 13.0478363 C-55.91388894 11.63078493 -56.51356981 10.21561136 -57.11891174 8.8028717 C-58.29375125 6.0082628 -59 4.07022313 -59 1 C-50.42 1 -41.84 1 -33 1 C-30.88091448 7.61991095 -28.76259361 14.24005637 -26.64624023 20.86083984 C-25.92599038 23.11326348 -25.20529006 25.36554312 -24.48413086 27.61767578 C-23.44787134 30.85411468 -22.41323081 34.09106727 -21.37890625 37.328125 C-21.05596085 38.33554749 -20.73301544 39.34296997 -20.40028381 40.38092041 C-20.10004807 41.32159363 -19.79981232 42.26226685 -19.49047852 43.23144531 C-19.22622574 44.05751282 -18.96197296 44.88358032 -18.68971252 45.73468018 C-18.05741551 47.81142216 -17.5046132 49.88903889 -17 52 C-16.8047876 51.38406982 -16.6095752 50.76813965 -16.40844727 50.13354492 C-11.08820599 33.37069715 -5.59636144 16.67249345 0 0 Z " fill="#FFFCFA" transform="translate(296,570)"/>
<path d="M0 0 C8.58 0 17.16 0 26 0 C27.47650694 4.40624839 28.95196964 8.81282256 30.42504883 13.22021484 C30.92383256 14.71161493 31.4231596 16.20283346 31.9230957 17.69384766 C34.86493542 26.46900298 37.75229136 35.25312556 40.42997742 44.11315918 C41.23261865 47.3168888 41.23261865 47.3168888 43 50 C43.27521988 49.12676338 43.27521988 49.12676338 43.55599976 48.23588562 C45.46456311 42.18351618 47.37975405 36.13327324 49.29882812 30.08422852 C50.01440314 27.8256543 50.7282797 25.56654126 51.44042969 23.30688477 C52.46364697 20.06123383 53.49293289 16.81756217 54.5234375 13.57421875 C54.84122162 12.56163498 55.15900574 11.54905121 55.48641968 10.50578308 C55.7865799 9.56503433 56.08674011 8.62428558 56.39599609 7.6550293 C56.65802826 6.82674118 56.92006042 5.99845306 57.19003296 5.14506531 C58 3 58 3 60 0 C62.43017578 -0.34057617 62.43017578 -0.34057617 65.4453125 -0.29296875 C66.52167969 -0.28330078 67.59804688 -0.27363281 68.70703125 -0.26367188 C70.39892578 -0.2259668 70.39892578 -0.2259668 72.125 -0.1875 C73.26066406 -0.17396484 74.39632812 -0.16042969 75.56640625 -0.14648438 C78.37807387 -0.11104319 81.18880417 -0.06163517 84 0 C83.31873539 4.22125154 81.92963953 8.01870875 80.33203125 11.96166992 C80.06039154 12.64193741 79.78875183 13.3222049 79.50888062 14.02308655 C78.61421356 16.26055855 77.7134371 18.4955149 76.8125 20.73046875 C76.18820607 22.2878076 75.56426914 23.8452896 74.94067383 25.40290833 C73.63523611 28.66117079 72.32704731 31.91830909 71.01660156 35.17456055 C69.33502433 39.35301592 67.657921 43.53324726 65.9825592 47.71419811 C64.38555247 51.69932875 62.78674432 55.68373562 61.1875 59.66796875 C60.88163971 60.43016409 60.57577942 61.19235943 60.26065063 61.9776516 C59.39739648 64.12766511 58.53291046 66.27717859 57.66796875 68.42651367 C57.17578857 69.65053391 56.6836084 70.87455414 56.17651367 72.13566589 C55.50159809 73.77881188 54.79441045 75.41117911 54 77 C46.08 77 38.16 77 30 77 C29.23333008 75.07808838 28.46666016 73.15617676 27.67675781 71.17602539 C25.13188077 64.79719793 22.58506293 58.41914665 20.03731155 52.04146671 C18.49400292 48.17799599 16.95133123 44.31427358 15.41015625 40.44995117 C13.9203876 36.71459447 12.42889223 32.97993141 10.93624115 29.24572563 C10.36955073 27.82716436 9.80346318 26.40836208 9.23801422 24.9893055 C5.16999317 14.76585601 5.16999317 14.76585601 0.66131592 4.73094177 C0 3 0 3 0 0 Z " fill="#FFFCFB" transform="translate(656,303)"/>
<path d="M0 0 C6.67534303 4.1318263 13.02317065 9.33059757 15.79296875 16.875 C17.79281084 26.17004069 17.05192029 35.14787708 12.34765625 43.453125 C8.00095103 50.16943875 1.91228278 53.83753691 -5.6796875 55.91015625 C-16.59007054 57.90298574 -26.12508706 56.99958804 -35.60546875 51.2734375 C-41.28193448 47.1024692 -44.44955432 41.03024805 -46.65234375 34.453125 C-47.86063976 25.95543666 -47.10477228 17.48563326 -42.17578125 10.30078125 C-32.00535685 -2.16843771 -15.0139079 -7.11844715 0 0 Z " fill="#FFFCFA" transform="translate(337.65234375,294.546875)"/>
<path d="M0 0 C6.30159044 4.72327001 10.82795368 11.13976278 12 19 C12.98754505 30.35397835 13.07009555 40.46938662 6 50 C1.19868562 55.48095249 -4.21265094 58.69531941 -11.49609375 59.28125 C-20.79968482 59.50254453 -28.4046009 59.10639646 -35.62109375 52.578125 C-43.04553302 44.08103303 -44.59250663 33.89185189 -44.30859375 22.94921875 C-43.59687704 13.84104666 -39.73504868 7.10099598 -33 1 C-22.99489245 -6.22125964 -10.67367689 -5.6439349 0 0 Z " fill="#FF7715" transform="translate(311,167)"/>
<path d="M0 0 C7.59 0 15.18 0 23 0 C23 35.64 23 71.28 23 108 C15.41 108 7.82 108 0 108 C-1.54593569 106.45406431 -1.12594233 105.01509926 -1.12698364 102.86230469 C-1.12980347 101.97047485 -1.13262329 101.07864502 -1.13552856 100.15979004 C-1.13350433 99.17377808 -1.1314801 98.18776611 -1.12939453 97.171875 C-1.13114685 96.13945679 -1.13289917 95.10703857 -1.13470459 94.04333496 C-1.13912533 90.61220648 -1.13618433 87.18112906 -1.1328125 83.75 C-1.13348548 81.37727854 -1.13445545 79.00455716 -1.13571167 76.63183594 C-1.13718894 71.65168605 -1.13503314 66.67155406 -1.13037109 61.69140625 C-1.1246738 55.29171321 -1.12795264 48.8920621 -1.13394356 42.49237061 C-1.13754837 37.59065431 -1.13641095 32.68894804 -1.13381577 27.78723145 C-1.13314628 25.42679845 -1.13397568 23.06636456 -1.13629532 20.70593262 C-1.13882054 17.41330537 -1.13498309 14.12074708 -1.12939453 10.828125 C-1.13141876 9.84211304 -1.13344299 8.85610107 -1.13552856 7.84020996 C-1.13270874 6.94838013 -1.12988892 6.05655029 -1.12698364 5.13769531 C-1.12660662 4.35823547 -1.12622959 3.57877563 -1.12584114 2.7756958 C-1 1 -1 1 0 0 Z " fill="#FFFBF8" transform="translate(830,273)"/>
<path d="M0 0 C7.92 0 15.84 0 24 0 C24 35.31 24 70.62 24 107 C16.08 107 8.16 107 0 107 C0 71.69 0 36.38 0 0 Z " fill="#FFFDFC" transform="translate(618,140)"/>
<path d="M0 0 C1.56385082 1.56385082 1.44123422 3.3111409 1.75390625 5.47265625 C1.88603516 6.37177734 2.01816406 7.27089844 2.15429688 8.19726562 C2.28900391 9.14279297 2.42371094 10.08832031 2.5625 11.0625 C2.70107422 12.01189453 2.83964844 12.96128906 2.98242188 13.93945312 C3.32532186 16.2924565 3.66433937 18.64595483 4 21 C3.45174561 21.13051758 2.90349121 21.26103516 2.33862305 21.39550781 C-0.21338403 22.00706842 -2.76289604 22.62849996 -5.3125 23.25 C-6.17423828 23.45496094 -7.03597656 23.65992188 -7.92382812 23.87109375 C-14.56141824 25.49964746 -20.48851006 27.63218548 -27 30 C-27.33 46.17 -27.66 62.34 -28 79 C-35.92 79 -43.84 79 -52 79 C-52.02255161 68.97771835 -52.04091543 58.95545343 -52.05181217 48.9331522 C-52.05704085 44.27988814 -52.06413823 39.62664226 -52.07543945 34.97338867 C-52.08626886 30.48655454 -52.09227695 25.99973796 -52.09487724 21.51289177 C-52.0967314 19.79719707 -52.10035182 18.08150338 -52.10573006 16.36581612 C-52.11294121 13.97115087 -52.11399091 11.57655904 -52.11352539 9.18188477 C-52.11712067 8.46547318 -52.12071594 7.74906158 -52.12442017 7.01094055 C-52.11405216 2.11405216 -52.11405216 2.11405216 -51 1 C-49.36527118 0.91299658 -47.72685945 0.89298937 -46.08984375 0.90234375 C-45.10048828 0.90556641 -44.11113281 0.90878906 -43.09179688 0.91210938 C-42.05087891 0.92048828 -41.00996094 0.92886719 -39.9375 0.9375 C-38.37032227 0.94426758 -38.37032227 0.94426758 -36.77148438 0.95117188 C-34.18096546 0.96300073 -31.59047578 0.98093681 -29 1 C-29 4.3 -29 7.6 -29 11 C-28.27296875 10.54109375 -27.5459375 10.0821875 -26.796875 9.609375 C-18.76751709 4.70940786 -9.7516246 -0.70514393 0 0 Z " fill="#FFFBF9" transform="translate(893,168)"/>
<path d="M0 0 C0 28.38 0 56.76 0 86 C-7.92 86 -15.84 86 -24 86 C-24 66.53 -24 47.06 -24 27 C-26.97 28.32 -29.94 29.64 -33 31 C-36.5625 31.25 -36.5625 31.25 -39 31 C-39.67126129 28.5636811 -40.33716354 26.12611117 -41 23.6875 C-41.19078125 22.99720703 -41.3815625 22.30691406 -41.578125 21.59570312 C-42.37716184 18.64212051 -43 16.07440781 -43 13 C-41.87464844 12.67128906 -41.87464844 12.67128906 -40.7265625 12.3359375 C-0.91056911 0 -0.91056911 0 0 0 Z " fill="#FFFDFC" transform="translate(279,295)"/>
<path d="M0 0 C7.92 0 15.84 0 24 0 C24 25.74 24 51.48 24 78 C16.08 78 8.16 78 0 78 C0 52.26 0 26.52 0 0 Z " fill="#FFFCFA" transform="translate(329,570)"/>
<path d="M0 0 C7.92 0 15.84 0 24 0 C24 25.74 24 51.48 24 78 C16.08 78 8.16 78 0 78 C0 52.26 0 26.52 0 0 Z " fill="#FFFCFA" transform="translate(398,303)"/>
<path d="M0 0 C3.7229703 2.6592645 6.55543557 5.73587115 8.625 9.875 C9.79312166 26.61169389 9.79312166 26.61169389 4.625 33.875 C0.48424872 37.9122325 -3.0219654 38.99630079 -8.6875 39.1875 C-13.33011945 39.08839646 -16.96238176 38.13519361 -20.375 34.875 C-25.68421861 27.87220787 -26.5348796 20.4318476 -25.375 11.875 C-23.93493634 6.60606119 -21.12240767 2.66752731 -16.5 -0.28125 C-11.09436346 -2.42760568 -5.4019036 -1.80063453 0 0 Z " fill="#FF7817" transform="translate(622.375,323.125)"/>
<path d="M0 0 C4.44032353 1.91626129 7.59205207 4.46544584 9.9609375 8.70703125 C11.09156643 12.29782499 11.27063812 15.77820395 11.3046875 19.51171875 C11.31435547 20.53313965 11.31435547 20.53313965 11.32421875 21.57519531 C11.18896619 26.92027263 9.93974968 31.04593443 6.3046875 35.03125 C0.3239996 39.68808771 -4.78254088 40.16087086 -12.1953125 39.38671875 C-17.50789204 36.73042898 -20.25761305 33.80499629 -22.3828125 28.32421875 C-23.96943927 22.07183361 -23.85675691 15.76013693 -22.1328125 9.57421875 C-16.98599055 1.10686651 -9.75831725 -2.72607795 0 0 Z " fill="#FF7816" transform="translate(794.1953125,188.61328125)"/>
<path d="M0 0 C0 11.88 0 23.76 0 36 C-6.98788363 38.32929454 -13.55379717 39.73237236 -20.63671875 36.97265625 C-25.53238187 34.05144239 -28.44628931 30.79141812 -30.4140625 25.4296875 C-32.10435702 18.42059956 -31.60153194 12.33372858 -28 6 C-20.11704977 -3.3743192 -11.05029158 -3.68343053 0 0 Z " fill="#FF7817" transform="translate(420,591)"/>
<path d="M0 0 C1.32 0.66 2.64 1.32 4 2 C4 13.55 4 25.1 4 37 C-0.30597719 39.1529886 -2.62571556 39.32760195 -7.375 39.375 C-8.66148437 39.40335937 -9.94796875 39.43171875 -11.2734375 39.4609375 C-16.63924201 38.7972426 -19.64420777 36.46877491 -23.25 32.5625 C-27.50686069 26.3292397 -27.75574323 20.36610494 -27 13 C-25.62744028 7.98645849 -22.86085086 3.69676741 -18.46484375 0.83984375 C-12.68627228 -1.12908314 -6.00919514 -0.61186874 0 0 Z " fill="#FF7917" transform="translate(292,456)"/>
<path d="M0 0 C1.60546875 2.43359375 1.60546875 2.43359375 3.1875 5.4375 C3.71730469 6.42621094 4.24710938 7.41492188 4.79296875 8.43359375 C6 11 6 11 6 13 C2.26692512 14.81950116 -1.4684819 16.63409909 -5.20605469 18.44433594 C-6.4752497 19.05987937 -7.74381606 19.67672088 -9.01171875 20.29492188 C-10.84208088 21.18707952 -12.67470863 22.07442953 -14.5078125 22.9609375 C-15.60754395 23.49509277 -16.70727539 24.02924805 -17.84033203 24.57958984 C-21 26 -21 26 -27 28 C-29.31 23.38 -31.62 18.76 -34 14 C-28.67905102 11.30806129 -23.34551114 8.64282807 -18 6 C-16.92008789 5.46439453 -16.92008789 5.46439453 -15.81835938 4.91796875 C-13.78010416 3.91295648 -11.73528405 2.92292466 -9.6875 1.9375 C-9.06029053 1.62675537 -8.43308105 1.31601074 -7.78686523 0.99584961 C-3.34477153 -1.11492384 -3.34477153 -1.11492384 0 0 Z " fill="#FFFCF9" transform="translate(633,270)"/>
<path d="M0 0 C3 2.5 3 2.5 5 5 C5.33 5.33 5.66 5.66 6 6 C7.07674856 19.3269699 7.07674856 19.3269699 4.25 23.75 C0.69715174 27.30284826 -0.86076851 27.89150176 -5.9375 28.375 C-9.09516598 28.29267724 -10.04689792 27.97145344 -12.875 26.25 C-16.71696777 22.18203412 -17.2931646 19.13753891 -17.3125 13.5625 C-17.32925781 12.45003906 -17.34601563 11.33757812 -17.36328125 10.19140625 C-16.85141473 5.69468639 -15.23745954 3.09187607 -11.875 0.125 C-7.73196229 -1.49618867 -4.24175166 -1.2909679 0 0 Z " fill="#FF7918" transform="translate(328,308)"/>
<path d="M0 0 C6.93 0 13.86 0 21 0 C21 7.26 21 14.52 21 22 C14.07 22 7.14 22 0 22 C0 14.74 0 7.48 0 0 Z " fill="#FFF8F4" transform="translate(540,626)"/>
<path d="M0 0 C7.92 0 15.84 0 24 0 C24 6.27 24 12.54 24 19 C16.08 19 8.16 19 0 19 C0 12.73 0 6.46 0 0 Z " fill="#FFF8F3" transform="translate(329,541)"/>
<path d="M0 0 C7.92 0 15.84 0 24 0 C24 6.27 24 12.54 24 19 C16.08 19 8.16 19 0 19 C0 12.73 0 6.46 0 0 Z " fill="#FFF8F3" transform="translate(398,274)"/>
<path d="M0 0 C0.67675781 -0.00386719 1.35351562 -0.00773437 2.05078125 -0.01171875 C5.14073767 -0.00562416 7.54679311 0.1405977 10.5 1.125 C10.5 5.745 10.5 10.365 10.5 15.125 C3.56517333 17.85345639 -4.29246818 20.37825896 -11.53125 17.24609375 C-14.60169303 15.05188564 -15.46787831 13.28852863 -16.1875 9.625 C-15.3365478 5.2928797 -13.9242043 3.83251037 -10.5 1.125 C-6.94086771 -0.06137743 -3.701855 -0.02115346 0 0 Z " fill="#FF7A1A" transform="translate(368.5,480.875)"/>
<path d="M0 0 C0.67675781 -0.00386719 1.35351562 -0.00773437 2.05078125 -0.01171875 C5.14073767 -0.00562416 7.54679311 0.1405977 10.5 1.125 C10.5 5.745 10.5 10.365 10.5 15.125 C3.79224299 17.76411751 -2.26804698 19.19257402 -9.5 18.125 C-12.50197464 16.32381522 -13.95166366 15.22167268 -15.5 12.125 C-15.875 9.3125 -15.875 9.3125 -15.5 6.125 C-10.81570435 0.42788366 -7.02419424 -0.04013825 0 0 Z " fill="#FF7A19" transform="translate(650.5,480.875)"/>
<path d="M0 0 C0.78503906 -0.00386719 1.57007813 -0.00773438 2.37890625 -0.01171875 C8.24669213 -0.00165394 8.24669213 -0.00165394 10.5 1.125 C10.5 5.415 10.5 9.705 10.5 14.125 C5.83849681 16.8340034 2.31410992 17.58159649 -3.0625 17.625 C-4.98255859 17.67140625 -4.98255859 17.67140625 -6.94140625 17.71875 C-11.34851663 16.98342533 -12.78487851 15.60199173 -15.5 12.125 C-16.125 9.125 -16.125 9.125 -15.5 6.125 C-10.56705385 0.28335325 -7.3265465 -0.03609136 0 0 Z " fill="#FF7917" transform="translate(492.5,614.875)"/>
<path d="M0 0 C3.33054982 1.63605956 5.19932741 2.90817374 7.375 5.875 C8 8 8 8 8 14 C-0.91 14 -9.82 14 -19 14 C-17.937638 6.56346602 -17.71863669 5.83372539 -13 1 C-9.05322303 -0.97338848 -4.30160477 -0.44290148 0 0 Z " fill="#FF7918" transform="translate(785,320)"/>
<path d="M0 0 C3.69382569 1.60601117 6.03871287 3.46968317 8 7 C8.33 9.31 8.66 11.62 9 14 C0.09 14 -8.82 14 -18 14 C-16.86486486 6.05405405 -16.86486486 6.05405405 -12 2 C-7.9556813 -0.69621247 -4.74665346 -0.54319098 0 0 Z " fill="#FF7817" transform="translate(573,186)"/>
</svg>
